<svg width="64" height="64" viewBox="0 0 64 64" fill="none" xmlns="http://www.w3.org/2000/svg">
<path d="M32 51.6299C43.2445 51.6299 52.36 42.5144 52.36 31.2699C52.36 20.0254 43.2445 10.9099 32 10.9099C20.7555 10.9099 11.64 20.0254 11.64 31.2699C11.64 42.5144 20.7555 51.6299 32 51.6299Z" stroke="#FE572E" stroke-width="3"/>
<path d="M31.36 16.5801V31.9901L38.76 37.6601" stroke="#FE572E" stroke-width="3" stroke-linecap="round"/>
<path d="M13.64 53.43L18.25 46.3" stroke="#FE572E" stroke-width="3" stroke-linecap="round"/>
<path d="M45.84 46.3L50.45 53.43" stroke="#FE572E" stroke-width="3" stroke-linecap="round"/>
<path d="M9.14998 19.4001C7.97716 18.1958 7.32086 16.5811 7.32086 14.9001C7.32086 13.219 7.97716 11.6044 9.14998 10.4001C9.71968 9.81159 10.4019 9.34364 11.156 9.02406C11.9102 8.70448 12.7209 8.53979 13.54 8.53979C14.3591 8.53979 15.1698 8.70448 15.9239 9.02406C16.6781 9.34364 17.3603 9.81159 17.93 10.4001L9.14998 19.4001ZM54.87 19.4001C56.0428 18.1958 56.6991 16.5811 56.6991 14.9001C56.6991 13.219 56.0428 11.6044 54.87 10.4001C54.3003 9.81159 53.6181 9.34364 52.8639 9.02406C52.1098 8.70448 51.2991 8.53979 50.48 8.53979C49.6609 8.53979 48.8502 8.70448 48.096 9.02406C47.3419 9.34364 46.6597 9.81159 46.09 10.4001L54.87 19.4001Z" stroke="#FE572E" stroke-width="3"/>
</svg>
