<svg width="32" height="32" viewBox="0 0 32 32" fill="none" xmlns="http://www.w3.org/2000/svg">
<path d="M31.2119 14.0951C30.9642 13.8453 30.6695 13.6471 30.3448 13.5118C30.0201 13.3766 29.6718 13.3069 29.3201 13.3069C28.9683 13.3069 28.6201 13.3766 28.2954 13.5118C27.9707 13.6471 27.676 13.8453 27.4283 14.0951L18.6622 22.8878V2.66447C18.6622 1.95781 18.3815 1.28009 17.8818 0.780406C17.3821 0.280721 16.7044 0 15.9977 0C15.2911 0 14.6133 0.280721 14.1137 0.780406C13.614 1.28009 13.3333 1.95781 13.3333 2.66447V22.8878L4.56715 14.0951C4.06542 13.5933 3.38493 13.3115 2.67537 13.3115C1.96582 13.3115 1.28533 13.5933 0.783599 14.0951C0.281869 14.5968 0 15.2773 0 15.9868C0 16.6964 0.281869 17.3769 0.783599 17.8786L14.106 31.201C14.3594 31.4435 14.6582 31.6337 14.9852 31.7605C15.3042 31.9015 15.649 31.9743 15.9977 31.9743C16.3464 31.9743 16.6913 31.9015 17.0102 31.7605C17.3373 31.6337 17.6361 31.4435 17.8895 31.201L31.2119 17.8786C31.4616 17.6309 31.6598 17.3362 31.7951 17.0115C31.9304 16.6868 32 16.3386 32 15.9868C32 15.6351 31.9304 15.2868 31.7951 14.9621C31.6598 14.6374 31.4616 14.3427 31.2119 14.0951Z" fill="#FCFCFC"/>
</svg>
