<svg width="27" height="27" viewBox="0 0 27 27" fill="none" xmlns="http://www.w3.org/2000/svg">
<path fill-rule="evenodd" clip-rule="evenodd" d="M13.335 0C5.96741 0 0 6.11835 0 13.6723C0 19.7223 3.81714 24.8323 9.11781 26.6439C9.78456 26.7635 10.0346 26.3533 10.0346 25.9944C10.0346 25.6697 10.0179 24.593 10.0179 23.448C6.6675 24.0803 5.80072 22.6106 5.53402 21.8415C5.38401 21.4484 4.73393 20.235 4.16719 19.9103C3.70046 19.6539 3.03371 19.0216 4.15052 19.0045C5.20065 18.9874 5.95074 19.9957 6.20078 20.4059C7.40093 22.4738 9.31783 21.8928 10.0846 21.5339C10.2013 20.6452 10.5513 20.047 10.9347 19.7052C7.96766 19.3634 4.86728 18.1841 4.86728 12.9545C4.86728 11.4676 5.38401 10.2371 6.23411 9.28007C6.10076 8.93826 5.63404 7.53685 6.36746 5.65691C6.36746 5.65691 7.48427 5.29801 10.0346 7.05832C11.1014 6.75069 12.2349 6.59688 13.3683 6.59688C14.5018 6.59688 15.6353 6.75069 16.7021 7.05832C19.2524 5.28092 20.3692 5.65691 20.3692 5.65691C21.1026 7.53685 20.6359 8.93826 20.5026 9.28007C21.3527 10.2371 21.8694 11.4505 21.8694 12.9545C21.8694 18.2012 18.7523 19.3634 15.7853 19.7052C16.2687 20.1325 16.6854 20.9528 16.6854 22.2346C16.6854 24.0632 16.6688 25.533 16.6688 25.9944C16.6688 26.3533 16.9188 26.7806 17.5855 26.6439C22.8529 24.8323 26.67 19.7052 26.67 13.6723C26.67 6.11835 20.7026 0 13.335 0Z" fill="#161616"/>
</svg>
