<svg width="33" height="32" viewBox="0 0 33 32" fill="none" xmlns="http://www.w3.org/2000/svg">
<path d="M17.67 12.0498H13.325V27.7648H17.825V20.5648C17.825 18.6548 18.185 16.8198 20.54 16.8198C22.895 16.8198 22.9 18.9898 22.9 20.6848V27.7648H27.4V19.7298C27.4 15.8498 26.575 12.2698 21.995 12.2698C20.305 12.2048 18.67 12.5148 17.76 13.8948C17.7548 13.9072 17.7452 13.9172 17.7331 13.923C17.721 13.9289 17.7071 13.93 17.6942 13.9263C17.6813 13.9226 17.6702 13.9143 17.6629 13.903C17.6557 13.8917 17.6529 13.8781 17.655 13.8648L17.67 12.0498Z" stroke="black" stroke-width="1.5" stroke-linecap="round"/>
<path d="M5.95996 12.0498H10.5V27.7648H5.95996V12.0498Z" stroke="black" stroke-width="1.5" stroke-linecap="round"/>
<path d="M8.21999 4.23537C7.69885 4.2334 7.18882 4.386 6.7544 4.6739C6.31998 4.96179 5.98069 5.37204 5.77943 5.85276C5.57817 6.33348 5.52398 6.86309 5.62371 7.37461C5.72344 7.88613 5.97262 8.35659 6.33973 8.72649C6.70684 9.0964 7.17539 9.34914 7.68614 9.45275C8.19689 9.55636 8.72689 9.50619 9.20913 9.30859C9.69137 9.11098 10.1042 8.77481 10.3954 8.34259C10.6865 7.91038 10.843 7.40152 10.845 6.88037C10.8476 6.53397 10.7817 6.19048 10.6509 5.86968C10.5202 5.54889 10.3273 5.25715 10.0833 5.01127C9.83924 4.7654 9.54897 4.57025 9.22918 4.43708C8.90939 4.30392 8.5664 4.23536 8.21999 4.23537Z" stroke="black" stroke-width="1.5" stroke-linecap="round"/>
</svg>
