<svg width="32" height="32" viewBox="0 0 32 32" fill="none" xmlns="http://www.w3.org/2000/svg">
<path d="M24.5299 3.6201H6.62988C6.35374 3.6201 6.12988 3.84396 6.12988 4.1201V9.6451C6.12988 9.92125 6.35374 10.1451 6.62988 10.1451H24.5299C24.806 10.1451 25.0299 9.92125 25.0299 9.6451V4.1201C25.0299 3.84396 24.806 3.6201 24.5299 3.6201Z" stroke="white" stroke-width="1.5" stroke-linecap="round"/>
<path d="M15.5801 19.135V17C15.5802 16.9532 15.5946 16.9075 15.6214 16.8691C15.6483 16.8306 15.6862 16.8013 15.7301 16.785L27.8101 12.285C27.854 12.2703 27.8922 12.242 27.9191 12.2043C27.946 12.1666 27.9604 12.1214 27.9601 12.075V7.11003C27.9601 7.08048 27.9543 7.05122 27.943 7.02392C27.9316 6.99663 27.9151 6.97182 27.8942 6.95093C27.8733 6.93004 27.8485 6.91346 27.8212 6.90216C27.7939 6.89085 27.7646 6.88503 27.7351 6.88503H25.0351" stroke="white" stroke-width="1.5" stroke-linecap="round"/>
<path d="M17.2401 19.135H14.1201C13.844 19.135 13.6201 19.3589 13.6201 19.635V27.875C13.6201 28.1512 13.844 28.375 14.1201 28.375H17.2401C17.5163 28.375 17.7401 28.1512 17.7401 27.875V19.635C17.7401 19.3589 17.5163 19.135 17.2401 19.135Z" stroke="white" stroke-width="1.5" stroke-linecap="round"/>
<path d="M4.54004 5.29501H6.13004V8.29501H4.54004C4.40743 8.29501 4.28025 8.24233 4.18649 8.14856C4.09272 8.0548 4.04004 7.92762 4.04004 7.79501V5.79501C4.04004 5.6624 4.09272 5.53522 4.18649 5.44146C4.28025 5.34769 4.40743 5.29501 4.54004 5.29501V5.29501Z" stroke="white" stroke-width="1.5" stroke-linecap="round"/>
</svg>
