<?xml version="1.0" standalone="no"?>
<!DOCTYPE svg PUBLIC "-//W3C//DTD SVG 20010904//EN"
 "http://www.w3.org/TR/2001/REC-SVG-20010904/DTD/svg10.dtd">
<svg version="1.0" xmlns="http://www.w3.org/2000/svg"
 width="672.000000pt" height="672.000000pt" viewBox="0 0 672.000000 672.000000"
 preserveAspectRatio="xMidYMid meet">

<g transform="translate(0.000000,672.000000) scale(0.100000,-0.100000)"
fill="#000000" stroke="none">
<path d="M0 3360 l0 -3360 3360 0 3360 0 0 3360 0 3360 -3360 0 -3360 0 0
-3360z m1650 1369 c91 -23 242 -95 325 -154 83 -59 211 -197 261 -281 83 -140
118 -263 128 -444 4 -58 8 -134 11 -170 2 -36 7 -117 10 -180 3 -63 8 -140 10
-170 2 -30 7 -113 11 -185 3 -71 8 -152 9 -180 2 -27 5 -83 6 -124 1 -42 5
-67 10 -60 4 8 105 266 224 574 250 649 271 700 338 818 164 294 391 481 668
551 93 24 269 45 269 33 0 -4 7 -55 15 -114 8 -59 17 -130 20 -158 7 -63 13
-110 20 -155 3 -19 7 -53 10 -75 2 -22 9 -71 14 -110 5 -38 12 -95 16 -125 3
-30 8 -66 10 -80 2 -14 7 -50 10 -80 3 -30 8 -66 10 -80 2 -14 6 -43 9 -65 3
-22 8 -60 11 -85 3 -25 8 -63 10 -85 3 -22 7 -51 10 -65 2 -14 7 -50 10 -80 4
-30 8 -66 10 -80 2 -14 7 -50 10 -80 3 -30 8 -66 10 -80 2 -14 7 -50 11 -80 4
-30 8 -66 10 -80 2 -14 6 -50 10 -80 4 -30 8 -64 10 -75 1 -11 3 -33 4 -50 1
-26 2 -28 10 -10 5 11 86 263 180 560 93 297 186 581 206 630 158 391 430 658
759 744 85 23 248 45 283 39 19 -3 -12 -85 -417 -1078 -240 -591 -457 -1113
-480 -1160 -127 -249 -324 -457 -539 -564 -67 -34 -214 -83 -272 -90 -25 -3
-56 -8 -70 -11 -14 -3 -59 -7 -102 -10 l-76 -5 -6 37 c-3 21 -8 58 -11 83 -3
25 -8 52 -10 60 -2 8 -7 40 -10 70 -3 30 -8 62 -10 70 -2 8 -7 38 -10 65 -3
28 -7 64 -10 80 -2 17 -7 48 -10 70 -3 22 -7 54 -10 70 -3 17 -7 48 -10 70 -3
22 -7 54 -10 70 -3 17 -7 48 -10 70 -3 22 -7 54 -10 70 -3 17 -7 48 -10 70 -3
22 -7 54 -10 70 -3 17 -7 48 -10 70 -3 22 -7 54 -10 70 -3 17 -7 48 -10 70 -3
22 -7 54 -10 70 -3 17 -7 48 -10 70 -3 22 -7 54 -10 70 -3 17 -7 48 -10 70 -3
22 -10 67 -15 100 -5 33 -12 85 -15 115 -3 30 -9 64 -12 74 -3 12 -77 -167
-199 -485 -107 -277 -217 -551 -245 -609 -214 -443 -546 -680 -986 -705 l-61
-4 -7 42 c-4 23 -8 53 -10 67 -2 14 -18 111 -35 215 -17 105 -34 204 -36 220
-5 30 -10 59 -19 118 -3 17 -8 43 -10 57 -2 14 -26 160 -54 325 -27 165 -52
318 -56 340 -3 22 -8 51 -10 65 -23 134 -55 333 -60 365 -3 23 -7 50 -9 62 -3
11 -7 38 -11 59 -3 22 -8 50 -10 64 -18 106 -95 573 -99 605 -4 22 -16 96 -27
165 -23 135 -22 131 -20 144 1 12 121 -2 211 -25z"/>
</g>
</svg>
